<svg width="16" height="14" viewBox="0 0 16 14" fill="none" xmlns="http://www.w3.org/2000/svg">
<path d="M14.1811 0.987193C13.7756 0.980809 12.8337 1.12729 11.261 2.24736C10.4038 2.01941 9.49186 1.90692 8.5783 1.90692C7.57313 1.90692 6.55735 2.04274 5.61007 2.31926C3.35214 0.680132 2.35551 1.01604 2.35551 1.01604C1.70487 2.74742 2.10693 4.02928 2.22914 4.34764C1.46441 5.2259 0.997559 6.34739 0.997559 7.72191C0.997559 8.7596 1.10855 9.69032 1.37971 10.4994C1.39475 10.5618 1.38987 10.5479 1.41521 10.6014C1.47495 10.7689 1.54137 10.9314 1.61603 11.0885C1.64161 11.145 1.6649 11.1868 1.6649 11.1868C2.42716 12.6988 3.92983 13.6755 6.60343 13.9821L10.6471 13.987C13.4984 13.6861 14.8666 12.7065 15.4971 11.1843L15.5372 11.0852C15.5969 10.9314 15.649 10.7715 15.7914 10.2329C15.9339 9.69435 15.9976 8.76166 15.9976 7.7215C15.9976 6.22968 15.471 5.03599 14.616 4.12785C14.7654 3.61461 14.965 2.4748 14.4167 1.01562C14.4167 1.01562 14.3398 0.989689 14.1811 0.98718L14.1811 0.987193ZM10.9945 6.46173C11.6529 6.46021 12.2169 6.5805 12.6403 7.05322V7.05362C13.1701 7.64565 13.4802 8.36044 13.4802 9.13073C13.4802 12.7273 11.3064 12.8251 8.62526 12.8251C5.94362 12.8251 3.77034 12.3267 3.77034 9.13073C3.77034 8.36554 4.07587 7.65503 4.59916 7.0654C5.47205 6.08273 6.94923 6.60309 8.62527 6.60309C9.48561 6.60295 10.2936 6.46334 10.9945 6.46172L10.9945 6.46173ZM6.00022 7.52081C5.44233 7.52081 4.99006 8.32345 4.99006 9.31398C4.99006 10.3047 5.44231 11.1076 6.00022 11.1076C6.55811 11.1076 7.01038 10.3047 7.01038 9.31398C7.01038 8.32359 6.55813 7.52153 6.00022 7.52081ZM11.4202 7.52081C10.8623 7.52081 10.41 8.32345 10.41 9.31398C10.41 10.3047 10.8622 11.1076 11.4202 11.1076C11.978 11.1076 12.4303 10.3047 12.4303 9.31398C12.4303 8.32359 11.9781 7.52153 11.4202 7.52081Z" fill="white"/>
</svg>
