<svg width="14" height="14" viewBox="0 0 14 14" fill="none" xmlns="http://www.w3.org/2000/svg">
<path fill-rule="evenodd" clip-rule="evenodd" d="M5.28598 4.97934H7.76198V6.21268C8.11865 5.50334 9.03331 4.86601 10.4073 4.86601C13.0413 4.86601 13.6666 6.27801 13.6666 8.86868V13.6667H11V9.45868C11 7.98334 10.6433 7.15134 9.73531 7.15134C8.47598 7.15134 7.95265 8.04801 7.95265 9.45801V13.6667H5.28598V4.97934ZM0.713313 13.5533H3.37998V4.86601H0.713313V13.5533ZM3.76198 2.03334C3.76208 2.25686 3.71775 2.47817 3.63157 2.6844C3.54539 2.89064 3.41908 3.07769 3.25998 3.23468C2.93758 3.55509 2.50119 3.73445 2.04665 3.73334C1.59291 3.73304 1.15752 3.55414 0.834646 3.23534C0.676121 3.07782 0.550237 2.89056 0.464209 2.6843C0.378181 2.47804 0.333699 2.25683 0.333313 2.03334C0.333313 1.58201 0.513313 1.15001 0.835313 0.831344C1.1579 0.512116 1.59347 0.333144 2.04731 0.333344C2.50198 0.333344 2.93798 0.512677 3.25998 0.831344C3.58131 1.15001 3.76198 1.58201 3.76198 2.03334Z" fill="white"/>
</svg>
